<?xml version="1.0" encoding="UTF-8"?>
<!DOCTYPE svg PUBLIC "-//W3C//DTD SVG 1.1//EN" "http://www.w3.org/Graphics/SVG/1.1/DTD/svg11.dtd">
<!-- Creator: CorelDRAW 2020 (64-Bit) -->
<svg xmlns="http://www.w3.org/2000/svg" xml:space="preserve" width="30px" height="30px" version="1.1" style="shape-rendering:geometricPrecision; text-rendering:geometricPrecision; image-rendering:optimizeQuality; fill-rule:evenodd; clip-rule:evenodd"
viewBox="0 0 1.16 1.16"
 xmlns:xlink="http://www.w3.org/1999/xlink"
 xmlns:xodm="http://www.corel.com/coreldraw/odm/2003">
 <defs>
  <style type="text/css">
   <![CDATA[
    .fil1 {fill:#DAB183}
    .fil0 {fill:#ECF0F3}
   ]]>
  </style>
 </defs>
 <g id="Capa_x0020_1">
  <metadata id="CorelCorpID_0Corel-Layer"/>
  <g id="_2251794591920">
   <path class="fil0" d="M1.03 1.07c0.02,0 0.04,-0.02 0.04,-0.04 0,-0.03 -0.02,-0.04 -0.03,-0.05 -0.02,-0.02 -0.05,-0.06 -0.08,-0.08l-0.22 -0.17 -0.01 0.01 0.07 0.09c0.03,0.04 0.08,0.11 0.11,0.14l0.07 0.07c0.01,0.01 0.02,0.03 0.05,0.03zm-0.58 -1.07l-0.03 0c-0.08,0 -0.15,0.02 -0.21,0.06 -0.03,0.02 -0.05,0.03 -0.08,0.07 -0.01,0.01 -0.02,0.01 -0.03,0.02l-0.02 0.03c-0.05,0.07 -0.08,0.15 -0.08,0.24l0 0.02c0,0.05 0.01,0.1 0.03,0.14 0,0.02 0.03,0.07 0.04,0.08 0.02,0.02 0.05,0.02 0.06,0 0.03,-0.03 0,-0.06 -0.02,-0.12 -0.01,-0.02 -0.01,-0.04 -0.01,-0.05 -0.02,-0.11 0.01,-0.22 0.09,-0.3 0.03,-0.03 0.06,-0.05 0.1,-0.07 0.29,-0.12 0.53,0.14 0.47,0.39 -0.01,0.06 -0.04,0.11 -0.09,0.16 -0.1,0.1 -0.24,0.13 -0.37,0.08 -0.01,-0.01 -0.02,-0.02 -0.03,-0.02 -0.04,0 -0.06,0.05 -0.04,0.08 0.01,0.01 0.01,0.01 0.02,0.01 0.09,0.05 0.22,0.05 0.31,0.02 0.04,-0.01 0.09,-0.04 0.1,-0.04 0,0.01 0.16,0.21 0.19,0.24 0,0.01 0,0.01 0.01,0.01 0.01,0.02 0.03,0.03 0.04,0.05 0.05,0.04 0.07,0.06 0.13,0.06 0.07,0 0.13,-0.06 0.13,-0.13l0 -0.02c0,-0.02 -0.01,-0.04 -0.02,-0.06 -0.01,-0.02 -0.07,-0.08 -0.09,-0.09 0,-0.01 -0.01,-0.01 -0.01,-0.01l-0.04 -0.03c0,-0.01 -0.19,-0.16 -0.2,-0.17 0.02,-0.02 0.03,-0.06 0.04,-0.09 0.02,-0.05 0.02,-0.09 0.02,-0.14 0,-0.09 -0.03,-0.17 -0.08,-0.24 -0.01,-0.02 -0.05,-0.06 -0.07,-0.08l-0.03 -0.02c-0.02,-0.02 -0.04,-0.03 -0.07,-0.04 -0.05,-0.02 -0.1,-0.04 -0.16,-0.04z"/>
   <path class="fil1" d="M0.48 0.22c0,0.09 -0.08,0.02 -0.16,0.1 -0.04,0.03 -0.03,0.06 -0.05,0.07 -0.03,0.02 -0.07,-0.01 -0.07,-0.04 0,-0.03 0.05,-0.09 0.08,-0.11 0.01,-0.02 0.03,-0.03 0.06,-0.04 0.03,-0.02 0.06,-0.02 0.1,-0.02 0.01,0 0.04,0.02 0.04,0.04z"/>
  </g>
 </g>
</svg>
