<?xml version="1.0" encoding="UTF-8"?>
<!DOCTYPE svg PUBLIC "-//W3C//DTD SVG 1.1//EN" "http://www.w3.org/Graphics/SVG/1.1/DTD/svg11.dtd">
<!-- Creator: CorelDRAW 2020 (64-Bit) -->
<svg xmlns="http://www.w3.org/2000/svg" xml:space="preserve" width="70px" height="70px" version="1.1" style="shape-rendering:geometricPrecision; text-rendering:geometricPrecision; image-rendering:optimizeQuality; fill-rule:evenodd; clip-rule:evenodd"
viewBox="0 0 14.89 14.89"
 xmlns:xlink="http://www.w3.org/1999/xlink"
 xmlns:xodm="http://www.corel.com/coreldraw/odm/2003">
 <defs>
  <style type="text/css">
   <![CDATA[
    .fil1 {fill:#E1B783}
    .fil0 {fill:#ECF0F3}
   ]]>
  </style>
 </defs>
 <g id="Capa_x0020_1">
  <metadata id="CorelCorpID_0Corel-Layer"/>
  <g id="_2252493275824">
   <path class="fil0" d="M12.56 4.92l0 -0.12 0.5 0c0,0.28 -0.07,0.26 -0.35,0.26 -0.07,0 -0.15,-0.08 -0.15,-0.14zm2.33 -2.74l0 0c0,0.7 -0.51,1.38 -1.1,1.69 0,0.27 0.02,0.4 -0.09,0.59 -0.14,0.27 -0.16,0.01 -0.18,0.46 -0.02,0.79 -1.37,0.83 -1.42,0 -0.01,-0.17 0.03,-0.2 -0.05,-0.3 -0.22,-0.27 -0.22,-0.3 -0.22,-0.75 -0.62,-0.33 -1.1,-0.96 -1.1,-1.86 0,-0.58 0.29,-1.07 0.59,-1.36 0.82,-0.82 2.14,-0.85 2.97,-0.02 0.46,0.47 0.6,0.88 0.6,1.55zm-3.14 -0.26c0,0.37 0.31,0.64 0.64,0.64 0.1,0 0.11,-0.02 0.2,-0.03l0 1.8c-0.19,0 -0.16,0.01 -0.29,-0.08 0,-0.13 0,-0.26 0,-0.38 0,-0.46 -0.21,-0.28 -0.58,-0.62 -1.15,-1.08 -0.29,-2.78 1.08,-2.78 0.51,0 0.91,0.22 1.17,0.48 0.49,0.49 0.61,1.14 0.32,1.79 -0.23,0.52 -0.64,0.65 -0.84,0.79 -0.18,0.12 -0.13,0.43 -0.13,0.72 -0.09,0.06 -0.1,0.08 -0.26,0.08l0 -1.8c0.46,0.11 0.81,-0.23 0.81,-0.55 0,-0.42 -0.33,-0.26 -0.37,-0.23 -0.16,0.15 0.05,0.42 -0.41,0.32 -0.05,-0.19 -0.11,-0.42 -0.34,-0.37 -0.3,0.07 -0.02,0.39 -0.36,0.39 -0.27,0 -0.13,-0.24 -0.29,-0.35 -0.15,-0.11 -0.35,-0.02 -0.35,0.18z"/>
   <path class="fil0" d="M6.41 11.2c0,-0.44 0.61,-0.56 0.78,-0.17 0.06,0.16 0.02,0.4 0.24,0.4 0.1,0 0.18,-0.05 0.21,-0.11 0.05,-0.09 0.04,-0.53 0.43,-0.53 0.31,0 0.41,0.22 0.41,0.47 0,0.16 -0.34,0.5 -0.47,0.63 -0.11,0.11 -0.16,0.19 -0.26,0.29l-0.29 0.3c-0.15,-0.1 -0.41,-0.42 -0.57,-0.59l-0.28 -0.3c-0.1,-0.1 -0.2,-0.2 -0.2,-0.39zm-0.46 0c0,0.2 0.13,0.47 0.22,0.59 0.06,0.07 0.14,0.13 0.21,0.2l0.4 0.44c0.12,0.13 0.5,0.61 0.66,0.62 0.19,0.02 0.34,-0.26 0.45,-0.37l0.82 -0.88c0.3,-0.31 0.33,-0.81 0.02,-1.17 -0.24,-0.26 -0.43,-0.27 -0.74,-0.27 -0.23,0 -0.42,0.16 -0.56,0.26 -0.24,-0.36 -1.11,-0.42 -1.4,0.23 -0.03,0.06 -0.08,0.26 -0.08,0.35z"/>
   <path class="fil0" d="M14.19 6.81c-0.28,-0.43 -0.55,-0.19 -0.55,-0.03 0,0.16 0.15,0.23 0.23,0.35 -0.07,0.11 -0.23,0.17 -0.23,0.32 0,0.23 0.3,0.38 0.55,0 0.12,0.08 0.19,0.23 0.35,0.23 0.14,0 0.24,-0.12 0.24,-0.23 0,-0.12 -0.17,-0.23 -0.24,-0.32 0.06,-0.09 0.24,-0.22 0.24,-0.35 0,-0.13 -0.15,-0.25 -0.28,-0.22 -0.12,0.03 -0.21,0.18 -0.31,0.25z"/>
   <path class="fil1" d="M0.15 1.34c0,0.14 0.09,0.22 0.23,0.32 -0.12,0.17 -0.23,0.14 -0.23,0.41 0,0.08 0.12,0.17 0.2,0.17 0.17,0 0.23,-0.15 0.35,-0.23 0.09,0.06 0.2,0.23 0.32,0.23 0.14,0 0.23,-0.09 0.23,-0.23 0,-0.17 -0.15,-0.23 -0.23,-0.35 0.44,-0.3 0.16,-0.55 0,-0.55 -0.12,0 -0.23,0.17 -0.32,0.23 -0.1,-0.07 -0.16,-0.19 -0.28,-0.22 -0.14,-0.03 -0.27,0.07 -0.27,0.22z"/>
   <path class="fil1" d="M0.15 6.75c0,0.15 0.03,0.22 0.23,0.35 -0.1,0.14 -0.23,0.16 -0.23,0.38 0,0.19 0.12,0.2 0.26,0.2 0.09,0 0.21,-0.18 0.29,-0.23 0.18,0.11 0.12,0.23 0.38,0.23 0.13,0 0.17,-0.15 0.17,-0.26 0,-0.1 -0.18,-0.25 -0.23,-0.32 0.47,-0.32 0.12,-0.58 -0.04,-0.54 -0.11,0.04 -0.19,0.16 -0.28,0.22 -0.11,-0.07 -0.15,-0.18 -0.29,-0.21 -0.09,-0.03 -0.26,0.06 -0.26,0.18z"/>
   <path class="fil0" d="M2.1 4.1c-0.07,0.11 -0.18,0.15 -0.21,0.29 -0.05,0.2 0.23,0.47 0.53,0.03 0.17,0.12 0.14,0.23 0.41,0.23 0.13,0 0.17,-0.14 0.17,-0.26 0,-0.09 -0.18,-0.21 -0.23,-0.29 0.07,-0.11 0.23,-0.17 0.23,-0.32 0,-0.21 -0.14,-0.23 -0.26,-0.23 -0.1,0 -0.24,0.18 -0.32,0.23 -0.32,-0.47 -0.58,-0.11 -0.54,0.04 0.03,0.12 0.16,0.19 0.22,0.28z"/>
   <path class="fil1" d="M5.71 6.6c0,0.19 0,0.29 0.24,0.29 0.32,0 0.11,-0.52 0.52,-0.52 0.38,0 0.21,0.52 0.47,0.52 0.13,0 0.29,-0.02 0.29,-0.2 0,-0.38 -0.34,-0.76 -0.7,-0.76l-0.15 0c-0.32,0 -0.67,0.35 -0.67,0.67z"/>
   <path class="fil1" d="M7.9 6.89c0.25,0 0.22,-0.2 0.25,-0.3 0.02,-0.08 0.05,-0.11 0.11,-0.15 0.23,-0.15 0.42,-0.01 0.47,0.15 0.06,0.22 0.03,0.3 0.25,0.3 0.48,0 0.13,-0.96 -0.47,-0.96l-0.15 0c-0.59,0 -0.93,0.96 -0.46,0.96z"/>
   <path class="fil1" d="M12.2 14.89l-0.94 0c-0.02,0 -0.03,0 -0.04,0 -0.22,0 -0.23,-0.37 -0.02,-0.43 0.33,-0.08 1.48,0.26 1.48,-0.58l0 -4.8c0,-0.2 -0.1,-0.33 -0.21,-0.43 -0.12,-0.11 -0.27,-0.16 -0.49,-0.16l-9.09 0c-0.4,0 -0.65,0.23 -0.68,0.59l-0.43 0c0,-0.33 0.11,-0.54 0.28,-0.71 0.14,-0.15 0.4,-0.31 0.68,-0.31 0.64,-0.02 1.31,0 1.95,0 -0.04,-0.09 -0.1,-0.29 -0.11,-0.41 -0.32,0 -0.49,-0.03 -0.65,-0.19 -0.24,-0.23 -0.35,-0.57 -0.21,-0.9 0.19,-0.42 -0.23,-2.02 0.42,-3.3 0.06,-0.12 0.21,-0.47 0.35,-0.47 0.32,0 0.29,0.25 0.17,0.44 -0.04,0.07 -0.06,0.1 -0.1,0.19 -0.43,0.98 -0.33,1.61 -0.33,2.69l0.29 -0.03c0,-1.23 0.01,-0.59 1.42,-0.94 0.48,-0.12 0.84,-0.29 1.27,-0.51 0.53,-0.26 1.11,-0.77 1.47,-1.23 0.07,-0.09 0.13,-0.15 0.19,-0.25 0.24,-0.36 0.49,-0.12 0.49,0.05 0,0.17 -0.4,0.57 -0.54,0.72 -0.12,0.14 -0.22,0.25 -0.37,0.36 0.04,0.18 0.24,0.39 0.36,0.51 0.73,0.73 1.47,0.47 1.57,0.77 0.03,0.1 0,0.39 0,0.52 0.14,0 0.15,0.03 0.32,0.03 0,-0.55 0.04,-1.14 -0.04,-1.68 -0.24,-1.56 -1.59,-2.8 -3.2,-2.8 -1.31,0 -1.93,0.73 -2.13,0.73 -0.16,0 -0.57,-0.23 0.32,-0.7 0,-0.53 0.36,-1.07 0.78,-1.35 0.08,-0.06 0.16,-0.11 0.26,-0.15 0.27,-0.11 0.54,-0.16 0.86,-0.16 0.85,0 1.69,0.81 1.69,1.66 0.18,0.09 0.41,0.23 0.56,0.37 0.49,0.44 0.89,0.92 1.12,1.59 0.38,1.12 0.12,2.57 0.25,2.92 0.12,0.3 0.09,0.65 -0.15,0.89 -0.18,0.18 -0.44,0.22 -0.7,0.22 -0.01,0.18 -0.08,0.26 -0.09,0.41 0.48,0 1.61,-0.04 2.01,0 0.55,0.06 0.9,0.55 0.9,1.1l0 4.63c0,0.33 -0.1,0.59 -0.28,0.76 -0.23,0.23 -0.43,0.31 -0.66,0.34zm-8.88 -0.43l6.65 0c0.23,0 0.23,0.43 0,0.43l-8.8 0 2.15 -0.43zm6.41 -6.4l-4.57 0c-0.06,-0.25 -0.18,-0.47 -0.18,-0.79l0 -1.54c0.29,0 0.66,-0.08 0.92,-0.13 0.92,-0.18 1.49,-0.53 2.2,-1 0.34,0.63 1.16,1.2 1.84,1.22 0,0.58 0.05,1.46 -0.11,1.98 -0.03,0.1 -0.07,0.17 -0.1,0.26zm0.79 -0.87l-0.14 0 0 -0.64c0.59,0 0.46,0.64 0.14,0.64zm-6.41 -0.3c0,-0.26 0.17,-0.34 0.41,-0.34l0 0.64c-0.19,0 -0.41,-0.05 -0.41,-0.3zm2.04 -5.46c0.06,-0.26 0.26,-0.54 0.45,-0.69 0.53,-0.39 1.16,-0.41 1.68,-0.01 0.1,0.07 0.21,0.19 0.28,0.29 0.06,0.09 0.17,0.28 0.18,0.41 -0.6,-0.32 -1.95,-0.31 -2.59,0z"/>
   <path class="fil0" d="M1.11 14.34l0.03 -0.29 1.37 0c0.41,0 0.38,-0.06 0.38,0.32 0,0.07 -0.03,0.09 -0.09,0.09l-1.58 0c-0.06,0 -0.11,-0.05 -0.11,-0.12zm1.1 -5.26c0.32,0 0.32,0.11 0.43,0.36 0.14,0.36 0.71,1.43 0.71,1.73 0,0.16 -0.29,0.28 -0.43,0.02 -0.19,-0.37 -0.41,-0.93 -0.59,-1.33l-0.1 -0.19c0,-0.01 -0.01,-0.01 -0.02,-0.01l0 1.92c0.55,0.14 0.4,1.04 -0.17,1.04 -0.67,0 -0.81,-0.75 -0.26,-1.04l0 -1.92c-0.08,0.09 -0.13,0.23 -0.18,0.35 -0.05,0.12 -0.1,0.23 -0.16,0.36 -0.12,0.29 -0.94,2.03 -0.94,2.17l0.77 0.94c0.05,0.06 0.05,0.1 0.13,0.1l1.19 0c0.09,0 0.11,-0.06 0.15,-0.11l0.67 -0.82c0.05,-0.06 0.04,-0.06 0.12,-0.11 -0.38,-0.72 0.17,-0.64 0.27,-0.5 0.04,0.05 0.08,0.18 0.12,0.25 0.13,0.29 0.06,0.37 -0.11,0.59 -0.08,0.1 -0.15,0.18 -0.23,0.27 -0.07,0.09 -0.14,0.17 -0.22,0.27 -0.08,0.1 -0.16,0.18 -0.21,0.28 0.29,0.23 0.28,1.18 -0.37,1.19l-1.61 0c-0.65,0 -0.6,-1.08 -0.3,-1.16 -0.1,-0.2 -0.29,-0.4 -0.44,-0.57 -0.6,-0.71 -0.53,-0.46 -0.05,-1.52l0.99 -2.22c0.13,-0.26 0.11,-0.34 0.41,-0.34l0.43 0zm-0.32 2.99c0,-0.09 0.04,-0.09 0.12,-0.09 0.11,0 0.09,0.08 0.09,0.18 -0.09,0.02 -0.21,0.05 -0.21,-0.09z"/>
  </g>
 </g>
</svg>
