<?xml version="1.0" encoding="UTF-8"?>
<!DOCTYPE svg PUBLIC "-//W3C//DTD SVG 1.1//EN" "http://www.w3.org/Graphics/SVG/1.1/DTD/svg11.dtd">
<!-- Creator: CorelDRAW 2020 (64-Bit) -->
<svg xmlns="http://www.w3.org/2000/svg" xml:space="preserve" width="70px" height="70px" version="1.1" style="shape-rendering:geometricPrecision; text-rendering:geometricPrecision; image-rendering:optimizeQuality; fill-rule:evenodd; clip-rule:evenodd"
viewBox="0 0 10.4 10.4"
 xmlns:xlink="http://www.w3.org/1999/xlink"
 xmlns:xodm="http://www.corel.com/coreldraw/odm/2003">
 <defs>
  <style type="text/css">
   <![CDATA[
    .fil0 {fill:#E1B783}
    .fil1 {fill:#ECF0F3}
   ]]>
  </style>
 </defs>
 <g id="Capa_x0020_1">
  <metadata id="CorelCorpID_0Corel-Layer"/>
  <g id="_2252493296176">
   <path class="fil0" d="M2.58 4.33l0.04 0c0.02,0.07 0.04,0.09 0.08,0.15l1.31 2.11 -2.82 0 0.35 -0.56c0.12,-0.19 0.23,-0.38 0.35,-0.56 0.06,-0.1 0.11,-0.19 0.17,-0.29 0.07,-0.09 0.5,-0.76 0.52,-0.85zm1.49 1.65c0,-0.06 0.39,-0.53 0.42,-0.63l0.04 0c0.02,0.07 0.65,0.94 0.74,1.08 0.05,0.07 0.07,0.09 0.11,0.16l-0.96 0c-0.03,-0.12 -0.35,-0.53 -0.35,-0.61zm-3.03 0.15l0 -3.01 4.51 0 0 3.06c-0.05,-0.04 -0.21,-0.27 -0.25,-0.34l-0.61 -0.86c-0.21,-0.33 -0.41,0.05 -0.52,0.23 -0.06,0.08 -0.27,0.35 -0.29,0.43 -0.09,-0.03 -0.1,-0.1 -0.16,-0.21l-0.91 -1.44c-0.21,-0.35 -0.33,-0.13 -0.46,0.05l-1.28 2.06c-0.04,0.05 0,0 -0.03,0.03zm-0.35 -3.18l0 3.81c0,0.11 0.07,0.18 0.18,0.18l4.85 0c0.11,0 0.18,-0.07 0.18,-0.18l0 -3.81c0,-0.11 -0.07,-0.18 -0.18,-0.18l-4.85 0c-0.11,0 -0.18,0.07 -0.18,0.18z"/>
   <path class="fil1" d="M3.29 0.87c0,0.1 0.07,0.17 0.18,0.17l6.07 0c0.23,0 0.23,-0.35 0,-0.35l-6.07 0c-0.11,0 -0.18,0.07 -0.18,0.18z"/>
   <path class="fil0" d="M3.81 3.99c0,-0.22 0.35,-0.22 0.35,0 0,0.22 -0.35,0.22 -0.35,0zm-0.34 -0.05c0,0.76 1.04,0.76 1.04,0 0,-0.26 -0.23,-0.47 -0.57,-0.47 -0.23,0 -0.47,0.24 -0.47,0.47z"/>
   <path class="fil1" d="M0.69 0.87c0,0.2 0.21,0.17 0.35,0.17 0.23,0 0.23,-0.35 0,-0.35 -0.14,0 -0.35,-0.03 -0.35,0.18z"/>
   <path class="fil1" d="M1.39 0.87c0,0.2 0.2,0.17 0.34,0.17 0.24,0 0.24,-0.35 0,-0.35 -0.14,0 -0.34,-0.03 -0.34,0.18z"/>
   <path class="fil1" d="M2.08 0.87c0,0.2 0.2,0.17 0.35,0.17 0.23,0 0.23,-0.35 0,-0.35 -0.15,0 -0.35,-0.03 -0.35,0.18z"/>
   <path class="fil0" d="M6.3 7.98l-5.76 0c-0.11,0 -0.19,-0.09 -0.19,-0.2l0 -6.05 9.71 0 0 2.26 0.34 2.63 0 -6.14c0,-0.24 -0.23,-0.48 -0.47,-0.48l-9.45 0c-0.24,0 -0.48,0.24 -0.48,0.48l0 7.37c0,0.23 0.24,0.47 0.48,0.47l5.82 0 0 -0.34zm-5.95 -7.44c0,-0.11 0.08,-0.19 0.19,-0.19l9.32 0c0.11,0 0.2,0.08 0.2,0.19l0 0.85 -9.71 0 0 -0.85z"/>
   <path class="fil1" d="M6.59 9.49l0 -0.13 3.47 0c0,0.37 -0.11,0.7 -0.57,0.7l-2.34 0c-0.33,0 -0.56,-0.24 -0.56,-0.57zm0 -4.29l3.47 0 0 3.82 -3.47 0 0 -3.82zm0 -0.48c0,-0.33 0.23,-0.56 0.56,-0.56l2.34 0c0.46,0 0.57,0.33 0.57,0.69l-3.47 0 0 -0.13zm-0.35 -0.1l0 4.98c0,0.4 0.4,0.8 0.8,0.8l2.56 0c0.4,0 0.8,-0.4 0.8,-0.8l0 -4.98c-0.04,-0.47 -0.32,-0.81 -0.8,-0.81l-2.56 0c-0.4,0 -0.8,0.41 -0.8,0.81z"/>
   <path class="fil1" d="M7.8 8.32c0,0.16 0.26,0.34 0.38,-0.05 0.07,-0.27 0.66,-2.27 0.66,-2.37 0,-0.16 -0.26,-0.34 -0.37,0.05l-0.58 2.03c-0.02,0.08 -0.09,0.25 -0.09,0.34z"/>
   <path class="fil1" d="M8.84 6.42c0,0.17 0.47,0.48 0.61,0.69 -0.08,0.12 -0.61,0.56 -0.61,0.65 0,0.18 0.04,0.22 0.22,0.22 0.07,0 0.56,-0.53 0.64,-0.62 0.33,-0.32 0.22,-0.29 -0.43,-0.94 -0.06,-0.06 -0.14,-0.18 -0.25,-0.18 -0.11,0 -0.18,0.07 -0.18,0.18z"/>
   <path class="fil1" d="M6.76 7.11c0,0.12 0.27,0.34 0.4,0.47 0.12,0.13 0.35,0.4 0.47,0.4 0.1,0 0.17,-0.07 0.17,-0.18 0,-0.17 -0.46,-0.48 -0.6,-0.69 0.14,-0.21 0.6,-0.52 0.6,-0.69 0,-0.11 -0.07,-0.18 -0.17,-0.18 -0.12,0 -0.19,0.12 -0.26,0.18l-0.43 0.43c-0.06,0.07 -0.18,0.14 -0.18,0.26z"/>
   <path class="fil1" d="M7.98 4.51c0,0.22 0.26,0.17 0.52,0.17 0.23,0 0.23,-0.35 0,-0.35 -0.26,0 -0.52,-0.05 -0.52,0.18z"/>
   <path class="fil1" d="M7.98 9.71c0,0.23 0.26,0.17 0.52,0.17 0.23,0 0.23,-0.34 0,-0.34 -0.26,0 -0.52,-0.06 -0.52,0.17z"/>
  </g>
 </g>
</svg>
