<?xml version="1.0" encoding="UTF-8"?>
<!DOCTYPE svg PUBLIC "-//W3C//DTD SVG 1.1//EN" "http://www.w3.org/Graphics/SVG/1.1/DTD/svg11.dtd">
<!-- Creator: CorelDRAW 2020 (64-Bit) -->
<svg xmlns="http://www.w3.org/2000/svg" xml:space="preserve" width="30px" height="30px" version="1.1" style="shape-rendering:geometricPrecision; text-rendering:geometricPrecision; image-rendering:optimizeQuality; fill-rule:evenodd; clip-rule:evenodd"
viewBox="0 0 0.57 0.57"
 xmlns:xlink="http://www.w3.org/1999/xlink"
 xmlns:xodm="http://www.corel.com/coreldraw/odm/2003">
 <defs>
  <style type="text/css">
   <![CDATA[
    .fil1 {fill:#213242;fill-rule:nonzero}
    .fil0 {fill:#E1B783;fill-rule:nonzero}
   ]]>
  </style>
 </defs>
 <g id="Capa_x0020_1">
  <metadata id="CorelCorpID_0Corel-Layer"/>
  <g id="_2252500741584">
   <path class="fil0" d="M0.42 0.57l-0.09 0 -0.05 -0.02 -0.04 0.02 -0.1 0c-0.08,0 -0.14,-0.07 -0.14,-0.15l0 -0.28c0,-0.08 0.06,-0.14 0.14,-0.14l0.28 0c0.08,0 0.15,0.06 0.15,0.14l0 0.28c0,0.08 -0.07,0.15 -0.15,0.15z"/>
   <path class="fil1" d="M0.24 0.22l0 0.06 -0.08 0 0 0.09 0.08 0 0 0.2 0.08 0 0 -0.2 0.07 0 0.01 -0.09 -0.08 0 0 -0.05c0,-0.02 0.01,-0.04 0.05,-0.04l0.03 0 0 -0.07c0,0 -0.03,-0.01 -0.06,-0.01 -0.06,0 -0.1,0.04 -0.1,0.11z"/>
  </g>
 </g>
</svg>
