<?xml version="1.0" encoding="UTF-8"?>
<!DOCTYPE svg PUBLIC "-//W3C//DTD SVG 1.1//EN" "http://www.w3.org/Graphics/SVG/1.1/DTD/svg11.dtd">
<!-- Creator: CorelDRAW 2020 (64-Bit) -->
<svg xmlns="http://www.w3.org/2000/svg" xml:space="preserve" width="70px" height="70px" version="1.1" style="shape-rendering:geometricPrecision; text-rendering:geometricPrecision; image-rendering:optimizeQuality; fill-rule:evenodd; clip-rule:evenodd"
viewBox="0 0 5.63 5.63"
 xmlns:xlink="http://www.w3.org/1999/xlink"
 xmlns:xodm="http://www.corel.com/coreldraw/odm/2003">
 <defs>
  <style type="text/css">
   <![CDATA[
    .fil0 {fill:#E1B783}
    .fil1 {fill:#ECF0F3}
   ]]>
  </style>
 </defs>
 <g id="Capa_x0020_1">
  <metadata id="CorelCorpID_0Corel-Layer"/>
  <g id="_2251657908928">
   <path class="fil0" d="M0.19 1l0 -0.69c0,-0.08 0.04,-0.12 0.12,-0.12l5.01 0c0.08,0 0.12,0.04 0.12,0.12l0 0.69c0,0.07 -0.03,0.12 -0.1,0.12l-5.05 0c-0.07,0 -0.1,-0.05 -0.1,-0.12zm-0.19 -0.75l0 0.8c0,0.14 0.13,0.27 0.3,0.27l5.03 0c0.17,0 0.3,-0.13 0.3,-0.27l0 -0.8c0,-0.12 -0.13,-0.25 -0.26,-0.25l-5.12 0c-0.12,0 -0.25,0.13 -0.25,0.25z"/>
   <path class="fil1" d="M0.66 0.66c0,-0.12 0.18,-0.12 0.18,-0.01 0,0.15 -0.18,0.11 -0.18,0.01zm0.37 0c0,-0.34 -0.44,-0.38 -0.55,-0.11 -0.02,0.06 -0.02,0.11 -0.01,0.17 0.08,0.32 0.56,0.28 0.56,-0.06z"/>
   <path class="fil1" d="M2.25 0.75c-0.11,0 -0.12,-0.18 -0.01,-0.18 0.15,0 0.12,0.18 0.01,0.18zm-0.28 -0.11c0,0.34 0.42,0.4 0.54,0.14 0.13,-0.3 -0.24,-0.54 -0.46,-0.32 -0.04,0.03 -0.08,0.11 -0.08,0.18z"/>
   <path class="fil1" d="M0.66 3.85c0,-0.12 0.18,-0.13 0.18,-0.02 0,0.15 -0.18,0.13 -0.18,0.02zm0.09 0.28c0.15,0 0.28,-0.12 0.28,-0.31 0,-0.14 -0.13,-0.26 -0.29,-0.26 -0.15,0 -0.28,0.14 -0.28,0.28 0.01,0.08 0.05,0.17 0.09,0.21 0.03,0.03 0.13,0.08 0.2,0.08z"/>
   <path class="fil1" d="M0.66 2.24c0,-0.09 0.18,-0.11 0.18,0 0,0.14 -0.18,0.13 -0.18,0zm0.08 0.3c0.26,0 0.39,-0.31 0.21,-0.49 -0.25,-0.25 -0.66,0.12 -0.41,0.4 0.05,0.04 0.15,0.09 0.2,0.09z"/>
   <path class="fil1" d="M1.49 0.57c0.04,0 0.06,0 0.08,0.03 0.06,0.06 0,0.15 -0.06,0.15 -0.12,0 -0.14,-0.18 -0.02,-0.18zm-0.27 0.06l0 0.05c0,0.14 0.14,0.26 0.28,0.26 0.13,0.01 0.28,-0.12 0.28,-0.26 0,-0.09 -0.01,-0.16 -0.08,-0.23 -0.11,-0.1 -0.29,-0.1 -0.4,0 -0.03,0.03 -0.08,0.11 -0.08,0.18z"/>
   <path class="fil0" d="M4.12 0.85c0,0.02 0.02,0.06 0.04,0.07 0.02,0.01 0.06,0.02 0.09,0.02l0.78 0c0.18,0 0.16,-0.19 0.04,-0.19l-0.85 0c-0.06,0 -0.1,0.04 -0.1,0.1z"/>
   <path class="fil0" d="M4.12 0.46c0,0.08 0.07,0.11 0.15,0.11l0.74 0c0.21,0 0.17,-0.2 0.06,-0.2l-0.85 0c-0.05,0 -0.1,0.05 -0.1,0.09z"/>
   <path class="fil0" d="M3.56 0.85c0,0.15 0.31,0.09 0.34,0.07 0.08,-0.05 0.04,-0.17 -0.05,-0.17 -0.13,0 -0.29,-0.03 -0.29,0.1z"/>
   <path class="fil0" d="M3.56 0.47c0,0.11 0.14,0.1 0.23,0.1 0.21,0 0.17,-0.2 0.06,-0.2 -0.13,0 -0.29,-0.03 -0.29,0.1z"/>
   <path class="fil0" d="M3.38 5.25l-0.2 0.19 2.04 0c0.41,0 0.39,-0.49 0.1,-0.56l-1.57 -0.01 -0.12 0.2 1.61 0c0.12,0 0.17,0.18 -0.04,0.18l-1.82 0zm0.18 -3.18c0,0.11 0.16,0.09 0.25,0.09 0.17,0 0.16,-0.19 0.04,-0.19 -0.13,0 -0.29,-0.03 -0.29,0.1zm0.85 0.35c0,0.07 0.02,0.12 0.12,0.12l0.52 0c0.14,0 0.16,-0.2 -0.01,-0.2l-0.54 0c-0.04,0 -0.09,0.04 -0.09,0.08zm-0.29 -0.37c0,0.08 0.06,0.11 0.13,0.11l0.76 0c0.22,0 0.17,-0.19 0.06,-0.19l-0.85 0c-0.05,0 -0.1,0.04 -0.1,0.08zm0 2.08l0.85 0c0.09,0 0.16,0.01 0.19,-0.07 0.01,-0.07 -0.03,-0.12 -0.12,-0.13l-0.82 0 0.03 -0.17 0.76 0c0.2,0 0.2,-0.2 0.02,-0.2l-0.77 0 -0.14 0.57zm-1.86 1.12l-1.8 0c-0.09,0 -0.2,0.02 -0.24,-0.03 -0.06,-0.05 -0.02,-0.15 0.07,-0.15l1.73 0 -0.16 -0.2 -1.6 0c-0.17,0.03 -0.25,0.14 -0.26,0.25l0 0.07c0.01,0.09 0.07,0.18 0.16,0.23 0.09,0.04 0.26,0.02 0.39,0.02l1.88 0 -0.17 -0.19zm-0.66 -0.75l-1.4 -0.01c-0.09,-0.03 -0.2,-0.13 -0.2,-0.25l0 -0.8c0,-0.13 0.13,-0.25 0.26,-0.25l1.1 0 -0.01 0.19 -1.08 0c-0.05,0 -0.08,0.05 -0.08,0.1l0 0.71c0,0.14 0.09,0.12 0.23,0.12l1.12 0 0.06 0.19zm2.43 -0.19l1.18 0c0.14,0 0.23,0.02 0.23,-0.12l0 -0.68c0,-0.07 -0.02,-0.13 -0.09,-0.13l-1.15 0 0.05 -0.19 1.11 0c0.13,0 0.27,0.12 0.27,0.25l0 0.8c0,0.13 -0.11,0.23 -0.21,0.25l-1.52 0.01 0.13 -0.19zm-2.66 -1.4l-1.06 0c-0.18,0 -0.31,-0.13 -0.31,-0.26l0 -0.8c0,-0.13 0.12,-0.26 0.27,-0.26l5.08 0c0.16,0 0.28,0.13 0.28,0.26l0 0.8c0,0.13 -0.13,0.26 -0.31,0.26l-1.04 0 0 -0.2 1.08 0c0.05,0 0.08,-0.06 0.08,-0.12l0 -0.69c0,-0.09 -0.05,-0.12 -0.13,-0.12l-4.99 0c-0.08,0 -0.13,0.04 -0.13,0.11l0 0.7c0,0.06 0.03,0.12 0.07,0.12l1.11 0 0 0.2z"/>
   <path class="fil1" d="M4.32 3.13l0 -0.42c0,-0.08 -0.03,-0.15 -0.07,-0.19 -0.1,-0.1 -0.26,-0.07 -0.44,-0.1 -0.07,-0.02 -0.15,-0.03 -0.23,-0.05 -0.2,-0.04 -0.41,-0.12 -0.58,-0.23 -0.24,-0.17 -0.27,-0.05 -0.55,0.09 -0.11,0.06 -0.26,0.11 -0.4,0.14 -0.4,0.1 -0.74,-0.01 -0.74,0.34l0 0.67c0,0.92 0.4,1.57 1.13,2.08 0.17,0.11 0.27,0.16 0.36,0.17l0.01 0c0.08,-0.01 0.17,-0.05 0.3,-0.12 0.19,-0.13 0.37,-0.26 0.53,-0.42 0.54,-0.51 0.68,-1.25 0.68,-1.96zm-2.81 0.39l0 -0.84c0,-0.06 0.23,-0.05 0.35,-0.07 0.32,-0.06 0.4,-0.08 0.67,-0.2 0.24,-0.09 0.23,-0.21 0.35,-0.12 0.02,0.02 0.04,0.02 0.06,0.04 0.03,0.01 0.05,0.02 0.07,0.04 0.14,0.07 0.24,0.11 0.39,0.16 0.11,0.03 0.24,0.05 0.36,0.07 0.12,0.02 0.36,0.02 0.36,0.08l0 0.83c0,0.45 -0.21,0.94 -0.41,1.2l-0.13 0.17c-0.12,0.15 -0.33,0.32 -0.49,0.42 -0.04,0.02 -0.22,0.13 -0.27,0.13 -0.09,0.01 -0.41,-0.22 -0.5,-0.29 -0.15,-0.11 -0.29,-0.27 -0.4,-0.42 -0.23,-0.31 -0.41,-0.78 -0.41,-1.2z"/>
   <path class="fil1" d="M2.81 5.02c-0.26,-0.14 -0.48,-0.35 -0.64,-0.59 -0.33,-0.49 -0.29,-0.89 -0.29,-1.45 0.35,0 0.92,-0.28 0.93,-0.28 0.03,0 0.17,0.07 0.21,0.09 0.18,0.07 0.53,0.19 0.73,0.19 0,0.36 0.02,0.68 -0.09,1.02 -0.09,0.27 -0.22,0.48 -0.4,0.68 -0.06,0.07 -0.07,0.07 -0.13,0.11 -0.11,0.1 -0.17,0.16 -0.32,0.23zm-1.13 -2.01c0,0.68 0,1.09 0.4,1.63 0.03,0.03 0.06,0.07 0.09,0.1l0.09 0.1c0.05,0.07 0.44,0.38 0.55,0.38 0.1,0 0.39,-0.22 0.46,-0.28 0.07,-0.07 0.05,-0.04 0.13,-0.14 0.04,-0.05 0.07,-0.06 0.14,-0.15 0.03,-0.04 0.05,-0.07 0.07,-0.11 0.34,-0.5 0.33,-0.91 0.33,-1.53 0,-0.31 -0.32,-0.17 -0.83,-0.4 -0.36,-0.15 -0.22,-0.16 -0.59,0 -0.53,0.24 -0.84,0.08 -0.84,0.4z"/>
   <path class="fil1" d="M2.54 3.66l0.55 0 0 0.56 -0.55 0 0 -0.56zm0.18 -0.29c0,-0.05 0.04,-0.08 0.09,-0.08 0.06,0 0.09,0.03 0.09,0.08l0 0.09 -0.18 0 0 -0.09zm-0.19 0.09c-0.02,0.01 -0.19,0.02 -0.19,0.2l0 0.56c0,0.09 0.08,0.19 0.17,0.19l0.61 0c0.08,0 0.17,-0.1 0.17,-0.19l0 -0.56c0,-0.05 -0.03,-0.11 -0.06,-0.14 -0.05,-0.05 -0.1,-0.04 -0.13,-0.06 0,-0.12 -0.01,-0.19 -0.07,-0.26 -0.11,-0.14 -0.33,-0.14 -0.44,0 -0.06,0.07 -0.06,0.14 -0.06,0.26z"/>
   <path class="fil1" d="M2.71 3.93c0,0.14 0.2,0.12 0.2,0.01 0,-0.13 -0.2,-0.12 -0.2,-0.01z"/>
  </g>
 </g>
</svg>
