<?xml version="1.0" encoding="UTF-8"?>
<!DOCTYPE svg PUBLIC "-//W3C//DTD SVG 1.1//EN" "http://www.w3.org/Graphics/SVG/1.1/DTD/svg11.dtd">
<!-- Creator: CorelDRAW 2020 (64-Bit) -->
<svg xmlns="http://www.w3.org/2000/svg" xml:space="preserve" width="70px" height="70px" version="1.1" style="shape-rendering:geometricPrecision; text-rendering:geometricPrecision; image-rendering:optimizeQuality; fill-rule:evenodd; clip-rule:evenodd"
viewBox="0 0 0.81 0.81"
 xmlns:xlink="http://www.w3.org/1999/xlink"
 xmlns:xodm="http://www.corel.com/coreldraw/odm/2003">
 <defs>
  <style type="text/css">
   <![CDATA[
    .fil0 {fill:#213242}
   ]]>
  </style>
 </defs>
 <g id="Capa_x0020_1">
  <metadata id="CorelCorpID_0Corel-Layer"/>
  <g id="_2252500814848">
   <path class="fil0" d="M0.05 0.55l0 -0.46c0,-0.02 0.02,-0.04 0.04,-0.04l0.63 0c0.03,0 0.04,0.02 0.04,0.04l0 0.46c0,0.01 0,0.02 0,0.03 -0.02,0.02 -0.06,0.01 -0.09,0.01 -0.05,0 -0.1,0 -0.15,0 -0.03,0 -0.03,0.01 -0.04,0.03 -0.01,0.02 -0.02,0.03 -0.02,0.05 -0.01,0.01 -0.05,0.09 -0.05,0.09 -0.01,0 -0.02,-0.03 -0.03,-0.04l-0.05 -0.1c-0.01,-0.02 -0.01,-0.03 -0.04,-0.03 -0.02,0 -0.2,0 -0.21,0 -0.02,0 -0.03,-0.02 -0.03,-0.04zm0.36 0.26l-0.01 0c-0.01,0 -0.03,-0.01 -0.04,-0.03l-0.07 -0.14c-0.06,0 -0.12,0 -0.19,0 -0.01,0 -0.03,0 -0.04,0 -0.03,-0.01 -0.06,-0.05 -0.06,-0.08l0 -0.48c0,-0.04 0.04,-0.08 0.08,-0.08l0.65 0c0.04,0 0.08,0.04 0.08,0.08l0 0.48c0,0.02 -0.01,0.05 -0.03,0.06 -0.02,0.02 -0.04,0.02 -0.07,0.02 -0.06,0 -0.13,0 -0.19,0 0,0.01 -0.06,0.14 -0.07,0.14 -0.01,0.02 -0.02,0.03 -0.04,0.03z"/>
   <path class="fil0" d="M0.38 0.29l0 -0.11c0,-0.02 0.01,-0.03 0.02,-0.03l0.01 0c0.01,0 0.02,0.01 0.02,0.03l0 0.11c0,0.03 -0.05,0.03 -0.05,0zm-0.05 -0.12l0 0.12c0,0.06 0.08,0.1 0.13,0.05 0.01,-0.01 0.02,-0.03 0.02,-0.05l0 -0.12c0,-0.02 -0.01,-0.04 -0.02,-0.05 -0.05,-0.05 -0.13,0 -0.13,0.05z"/>
   <path class="fil0" d="M0.38 0.49c0,-0.04 0.05,-0.03 0.05,0 0,0.04 -0.05,0.03 -0.05,0zm-0.05 -0.01c0,0.02 0,0.03 0.01,0.04 0,0.01 0.01,0.02 0.01,0.03 0.04,0.02 0.07,0.02 0.11,0 0,-0.01 0.01,-0.02 0.01,-0.02 0.03,-0.06 -0.01,-0.11 -0.06,-0.11 -0.02,0 -0.04,0 -0.06,0.02 -0.01,0.01 -0.02,0.02 -0.02,0.04z"/>
  </g>
 </g>
</svg>
