<?xml version="1.0" encoding="UTF-8"?>
<!DOCTYPE svg PUBLIC "-//W3C//DTD SVG 1.1//EN" "http://www.w3.org/Graphics/SVG/1.1/DTD/svg11.dtd">
<!-- Creator: CorelDRAW 2020 (64-Bit) -->
<svg xmlns="http://www.w3.org/2000/svg" xml:space="preserve" width="30px" height="30px" version="1.1" style="shape-rendering:geometricPrecision; text-rendering:geometricPrecision; image-rendering:optimizeQuality; fill-rule:evenodd; clip-rule:evenodd"
viewBox="0 0 1.31 1.31"
 xmlns:xlink="http://www.w3.org/1999/xlink"
 xmlns:xodm="http://www.corel.com/coreldraw/odm/2003">
 <defs>
  <style type="text/css">
   <![CDATA[
    .fil0 {fill:#E1B783}
   ]]>
  </style>
 </defs>
 <g id="Capa_x0020_1">
  <metadata id="CorelCorpID_0Corel-Layer"/>
  <path class="fil0" d="M0.56 0.98c-0.05,0 -0.07,-0.02 -0.1,-0.05 -0.02,-0.02 -0.05,-0.05 -0.07,-0.07 -0.03,-0.03 -0.05,-0.05 -0.08,-0.08 -0.03,-0.03 -0.06,-0.05 -0.06,-0.1 0,-0.07 0.09,-0.13 0.16,-0.06l0.1 0.09c0.01,0.02 0.04,0.04 0.04,0.05 0.02,-0.01 0.23,-0.22 0.25,-0.24 0.02,-0.02 0.1,-0.11 0.12,-0.12 0.07,-0.04 0.14,0.01 0.14,0.07 0,0.05 -0.01,0.06 -0.05,0.1l-0.37 0.37c-0.02,0.02 -0.05,0.04 -0.08,0.04zm0.07 -0.98c0.17,0 0.29,0.03 0.43,0.14 0.22,0.16 0.3,0.44 0.23,0.71 -0.02,0.06 -0.05,0.11 -0.08,0.16 -0.12,0.2 -0.34,0.3 -0.57,0.3 -0.16,0 -0.31,-0.07 -0.43,-0.17 -0.01,-0.01 -0.01,-0.01 -0.02,-0.02 -0.17,-0.17 -0.22,-0.39 -0.17,-0.62 0.04,-0.21 0.22,-0.4 0.42,-0.46 0.06,-0.03 0.13,-0.04 0.19,-0.04z"/>
 </g>
</svg>
