<?xml version="1.0" encoding="UTF-8"?>
<!DOCTYPE svg PUBLIC "-//W3C//DTD SVG 1.1//EN" "http://www.w3.org/Graphics/SVG/1.1/DTD/svg11.dtd">
<!-- Creator: CorelDRAW 2020 (64-Bit) -->
<svg xmlns="http://www.w3.org/2000/svg" xml:space="preserve" width="30px" height="30px" version="1.1" style="shape-rendering:geometricPrecision; text-rendering:geometricPrecision; image-rendering:optimizeQuality; fill-rule:evenodd; clip-rule:evenodd"
viewBox="0 0 2.88 2.88"
 xmlns:xlink="http://www.w3.org/1999/xlink"
 xmlns:xodm="http://www.corel.com/coreldraw/odm/2003">
 <defs>
  <style type="text/css">
   <![CDATA[
    .fil0 {fill:#E1B783}
   ]]>
  </style>
 </defs>
 <g id="Capa_x0020_1">
  <metadata id="CorelCorpID_0Corel-Layer"/>
  <path class="fil0" d="M0 0.29c0,0.2 0.08,0.24 0.2,0.36 0.06,0.07 0.76,0.76 0.78,0.79 -0.02,0.03 -0.09,0.1 -0.12,0.13 -0.05,0.05 -0.09,0.09 -0.13,0.13l-0.53 0.52c-0.12,0.13 -0.2,0.17 -0.2,0.37 0,0.07 0.04,0.13 0.07,0.18 0.05,0.06 0.14,0.11 0.22,0.11 0.2,0 0.24,-0.08 0.36,-0.2 0.07,-0.06 0.76,-0.76 0.79,-0.78 0.03,0.02 0.72,0.72 0.78,0.78 0.13,0.12 0.17,0.2 0.37,0.2 0.04,0 0.09,-0.02 0.11,-0.03 0.05,-0.02 0.04,-0.02 0.07,-0.04l0.04 -0.04c0,-0.01 0.01,-0.01 0.01,-0.02 0.02,-0.02 0.02,-0.03 0.03,-0.05 0.03,-0.06 0.03,-0.09 0.03,-0.15l0 -0.01c0,-0.14 -0.12,-0.24 -0.2,-0.31 -0.06,-0.06 -0.76,-0.76 -0.78,-0.79 0.02,-0.03 0.71,-0.72 0.77,-0.78 0.08,-0.08 0.21,-0.18 0.21,-0.32 0,-0.1 -0.01,-0.15 -0.07,-0.23 -0.05,-0.06 -0.14,-0.11 -0.23,-0.11 -0.18,0 -0.23,0.08 -0.35,0.2l-0.66 0.65c-0.03,0.04 -0.1,0.11 -0.13,0.13 -0.03,-0.01 -0.72,-0.72 -0.78,-0.78 -0.13,-0.12 -0.17,-0.2 -0.37,-0.2 -0.1,0 -0.21,0.08 -0.26,0.18 -0.01,0.03 -0.03,0.07 -0.03,0.11z"/>
 </g>
</svg>
