<?xml version="1.0" encoding="UTF-8"?>
<!DOCTYPE svg PUBLIC "-//W3C//DTD SVG 1.1//EN" "http://www.w3.org/Graphics/SVG/1.1/DTD/svg11.dtd">
<!-- Creator: CorelDRAW 2020 (64-Bit) -->
<svg xmlns="http://www.w3.org/2000/svg" xml:space="preserve" width="30px" height="30px" version="1.1" style="shape-rendering:geometricPrecision; text-rendering:geometricPrecision; image-rendering:optimizeQuality; fill-rule:evenodd; clip-rule:evenodd"
viewBox="0 0 2.88 2.88"
 xmlns:xlink="http://www.w3.org/1999/xlink"
 xmlns:xodm="http://www.corel.com/coreldraw/odm/2003">
 <defs>
  <style type="text/css">
   <![CDATA[
    .fil0 {fill:#E1B783}
    .fil1 {fill:#ECF0F3}
   ]]>
  </style>
 </defs>
 <g id="Capa_x0020_1">
  <metadata id="CorelCorpID_0Corel-Layer"/>
  <g id="_2251660062624">
   <path class="fil0" d="M2.88 2.77l0 -0.5c0,-0.05 -0.05,-0.11 -0.11,-0.11l-0.5 0c-0.05,0 -0.11,0.06 -0.11,0.11l0 0.5c0,0.06 0.06,0.11 0.11,0.11l0.5 0c0.06,0 0.11,-0.05 0.11,-0.11z"/>
   <path class="fil0" d="M1.8 2.77l0 -0.5c0,-0.05 -0.05,-0.11 -0.11,-0.11l-0.5 0c-0.06,0 -0.11,0.06 -0.11,0.11l0 0.5c0,0.06 0.05,0.11 0.11,0.11l0.5 0c0.06,0 0.11,-0.05 0.11,-0.11z"/>
   <path class="fil0" d="M0.72 2.77l0 -0.5c0,-0.05 -0.05,-0.11 -0.11,-0.11l-0.5 0c-0.06,0 -0.11,0.06 -0.11,0.11l0 0.5c0,0.06 0.05,0.11 0.11,0.11l0.5 0c0.06,0 0.11,-0.05 0.11,-0.11z"/>
   <path class="fil1" d="M0.72 1.69l0 -0.5c0,-0.06 -0.05,-0.11 -0.11,-0.11l-0.5 0c-0.06,0 -0.11,0.05 -0.11,0.11l0 0.5c0,0.06 0.05,0.11 0.11,0.11l0.5 0c0.06,0 0.11,-0.05 0.11,-0.11z"/>
   <path class="fil0" d="M2.88 1.69l0 -0.5c0,-0.06 -0.05,-0.11 -0.11,-0.11l-0.5 0c-0.05,0 -0.11,0.05 -0.11,0.11l0 0.5c0,0.06 0.06,0.11 0.11,0.11l0.5 0c0.06,0 0.11,-0.05 0.11,-0.11z"/>
   <path class="fil0" d="M1.8 1.69l0 -0.5c0,-0.06 -0.05,-0.11 -0.11,-0.11l-0.5 0c-0.06,0 -0.11,0.05 -0.11,0.11l0 0.5c0,0.06 0.05,0.11 0.11,0.11l0.5 0c0.06,0 0.11,-0.05 0.11,-0.11z"/>
   <path class="fil0" d="M2.88 0.61l0 -0.5c0,-0.06 -0.05,-0.11 -0.11,-0.11l-0.5 0c-0.05,0 -0.11,0.05 -0.11,0.11l0 0.5c0,0.06 0.06,0.11 0.11,0.11l0.5 0c0.06,0 0.11,-0.05 0.11,-0.11z"/>
   <path class="fil1" d="M1.8 0.61l0 -0.5c0,-0.06 -0.05,-0.11 -0.11,-0.11l-0.5 0c-0.06,0 -0.11,0.05 -0.11,0.11l0 0.5c0,0.06 0.05,0.11 0.11,0.11l0.5 0c0.06,0 0.11,-0.05 0.11,-0.11z"/>
   <path class="fil0" d="M0.72 0.61l0 -0.5c0,-0.06 -0.05,-0.11 -0.11,-0.11l-0.5 0c-0.06,0 -0.11,0.05 -0.11,0.11l0 0.5c0,0.06 0.05,0.11 0.11,0.11l0.5 0c0.06,0 0.11,-0.05 0.11,-0.11z"/>
  </g>
 </g>
</svg>
