<?xml version="1.0" encoding="UTF-8"?>
<!DOCTYPE svg PUBLIC "-//W3C//DTD SVG 1.1//EN" "http://www.w3.org/Graphics/SVG/1.1/DTD/svg11.dtd">
<!-- Creator: CorelDRAW 2020 (64-Bit) -->
<svg xmlns="http://www.w3.org/2000/svg" xml:space="preserve" width="70px" height="70px" version="1.1" style="shape-rendering:geometricPrecision; text-rendering:geometricPrecision; image-rendering:optimizeQuality; fill-rule:evenodd; clip-rule:evenodd"
viewBox="0 0 12.68 12.68"
 xmlns:xlink="http://www.w3.org/1999/xlink"
 xmlns:xodm="http://www.corel.com/coreldraw/odm/2003">
 <defs>
  <style type="text/css">
   <![CDATA[
    .fil0 {fill:#E1B783}
   ]]>
  </style>
 </defs>
 <g id="Capa_x0020_1">
  <metadata id="CorelCorpID_0Corel-Layer"/>
  <path class="fil0" d="M3.74 12.68c0,-0.38 0,-0.76 0,-1.14 0.01,-1.32 0.96,-2.41 2.27,-2.58 0.03,-0.01 0.05,-0.02 0.1,-0.03 -1.13,-0.19 -1.72,-1.14 -1.62,-2.04 0.11,-0.97 0.9,-1.67 1.85,-1.67 0.95,0 1.73,0.7 1.84,1.67 0.1,0.88 -0.47,1.85 -1.63,2.04 0.15,0.03 0.26,0.05 0.38,0.08 1.16,0.27 1.99,1.3 2.01,2.5 0,0.39 0,0.78 0,1.17l-5.2 0zm0.43 -11.06c0.41,-0.06 0.88,-0.13 1.34,-0.19 0.09,-0.01 0.15,-0.05 0.19,-0.13 0.2,-0.43 0.41,-0.85 0.64,-1.3 0.02,0.06 0.04,0.09 0.06,0.13 0.2,0.39 0.39,0.77 0.58,1.16 0.04,0.1 0.1,0.13 0.19,0.14 0.47,0.06 0.93,0.13 1.42,0.2 -0.04,0.04 -0.07,0.07 -0.1,0.1 -0.31,0.31 -0.62,0.61 -0.94,0.91 -0.07,0.07 -0.08,0.14 -0.06,0.23 0.08,0.45 0.15,0.91 0.23,1.36 0,0.01 0,0.02 0,0.05 -0.05,-0.02 -0.08,-0.04 -0.12,-0.06 -0.39,-0.21 -0.78,-0.41 -1.17,-0.62 -0.07,-0.04 -0.12,-0.03 -0.18,0 -0.43,0.23 -0.85,0.45 -1.3,0.69 0.03,-0.19 0.05,-0.35 0.08,-0.51 0.05,-0.31 0.11,-0.62 0.16,-0.93 0.02,-0.08 0,-0.13 -0.06,-0.19 -0.33,-0.35 -0.65,-0.7 -0.96,-1.04zm8.51 2.54c-0.24,0.22 -0.46,0.42 -0.67,0.61 -0.15,0.14 -0.3,0.28 -0.45,0.41 -0.07,0.06 -0.08,0.12 -0.07,0.21 0.08,0.45 0.16,0.9 0.24,1.35 0,0.01 0,0.03 0,0.06 -0.05,-0.02 -0.09,-0.04 -0.13,-0.06 -0.38,-0.2 -0.77,-0.4 -1.15,-0.61 -0.07,-0.04 -0.13,-0.04 -0.2,0 -0.42,0.23 -0.85,0.45 -1.29,0.68 0.03,-0.18 0.05,-0.34 0.08,-0.51 0.05,-0.31 0.11,-0.61 0.16,-0.92 0.02,-0.08 0,-0.14 -0.06,-0.2 -0.31,-0.3 -0.63,-0.61 -0.94,-0.91 -0.03,-0.03 -0.06,-0.05 -0.1,-0.08 0.01,-0.01 0.01,-0.02 0.02,-0.03 0.23,-0.03 0.46,-0.07 0.7,-0.1 0.24,-0.04 0.49,-0.08 0.73,-0.11 0.07,-0.01 0.12,-0.04 0.15,-0.11 0.19,-0.39 0.38,-0.78 0.58,-1.17 0.02,-0.04 0.04,-0.08 0.07,-0.13 0.02,0.05 0.05,0.08 0.07,0.12 0.19,0.39 0.38,0.77 0.56,1.16 0.05,0.09 0.11,0.13 0.21,0.14 0.48,0.06 0.97,0.13 1.49,0.2zm-12.68 -0.01c0.4,-0.05 0.81,-0.1 1.21,-0.16 0.01,0 0.02,0 0.03,0 0.32,0.03 0.47,-0.16 0.58,-0.43 0.13,-0.31 0.29,-0.6 0.44,-0.89 0.01,-0.04 0.04,-0.08 0.07,-0.13 0.02,0.05 0.05,0.08 0.07,0.12 0.19,0.39 0.38,0.78 0.57,1.17 0.04,0.09 0.1,0.12 0.19,0.13 0.23,0.03 0.46,0.06 0.69,0.1 0.24,0.03 0.47,0.06 0.73,0.1 -0.04,0.04 -0.07,0.07 -0.1,0.1 -0.31,0.31 -0.62,0.61 -0.93,0.91 -0.08,0.07 -0.09,0.13 -0.08,0.23 0.09,0.46 0.17,0.92 0.25,1.4 -0.05,-0.02 -0.09,-0.03 -0.12,-0.05 -0.39,-0.2 -0.77,-0.4 -1.16,-0.61 -0.08,-0.04 -0.14,-0.05 -0.22,0 -0.38,0.2 -0.77,0.4 -1.15,0.6 -0.04,0.02 -0.08,0.04 -0.14,0.07 0.06,-0.34 0.12,-0.66 0.17,-0.98 0.03,-0.16 0.06,-0.32 0.08,-0.48 0.01,-0.04 -0.01,-0.11 -0.04,-0.14 -0.36,-0.34 -0.74,-0.68 -1.11,-1.02 -0.01,-0.01 -0.02,-0.01 -0.03,-0.01l0 -0.03zm9.68 8.53c-0.01,-0.5 0,-0.99 -0.03,-1.49 -0.01,-0.22 -0.08,-0.44 -0.13,-0.68 0.1,-0.03 0.21,-0.06 0.35,-0.09 -0.13,-0.03 -0.24,-0.06 -0.34,-0.1 -0.05,-0.02 -0.11,-0.07 -0.13,-0.13 -0.18,-0.39 -0.42,-0.73 -0.73,-1.03 -0.08,-0.07 -0.11,-0.14 -0.11,-0.24 0,-0.73 0.57,-1.36 1.33,-1.46 0.69,-0.1 1.41,0.39 1.59,1.08 0.23,0.85 -0.29,1.67 -1.15,1.86 -0.02,0 -0.04,0 -0.06,0.03 0.06,0.01 0.11,0.02 0.17,0.04 0.86,0.19 1.46,0.93 1.47,1.81 0,0.13 0,0.26 0,0.4l-2.23 0zm-8.91 0c0.02,-0.29 -0.01,-0.6 0.07,-0.87 0.21,-0.77 0.72,-1.22 1.5,-1.37 0.02,0 0.04,0 0.1,-0.02 -0.08,-0.02 -0.13,-0.03 -0.18,-0.05 -0.71,-0.18 -1.2,-0.87 -1.12,-1.58 0.09,-0.75 0.71,-1.33 1.44,-1.34 0.76,-0.01 1.39,0.52 1.51,1.26 0.01,0.05 0.01,0.09 0.02,0.14 0.02,0.14 -0.03,0.24 -0.14,0.35 -0.28,0.26 -0.5,0.57 -0.65,0.93 -0.06,0.13 -0.14,0.2 -0.27,0.22 -0.07,0.02 -0.15,0.04 -0.25,0.07 0.13,0.03 0.25,0.06 0.36,0.09 -0.05,0.23 -0.12,0.45 -0.13,0.67 -0.03,0.5 -0.03,1 -0.04,1.5l-2.22 0z"/>
 </g>
</svg>
