<?xml version="1.0" encoding="UTF-8"?>
<!DOCTYPE svg PUBLIC "-//W3C//DTD SVG 1.1//EN" "http://www.w3.org/Graphics/SVG/1.1/DTD/svg11.dtd">
<!-- Creator: CorelDRAW 2020 (64-Bit) -->
<svg xmlns="http://www.w3.org/2000/svg" xml:space="preserve" width="70px" height="70px" version="1.1" style="shape-rendering:geometricPrecision; text-rendering:geometricPrecision; image-rendering:optimizeQuality; fill-rule:evenodd; clip-rule:evenodd"
viewBox="0 0 3.98 3.98"
 xmlns:xlink="http://www.w3.org/1999/xlink"
 xmlns:xodm="http://www.corel.com/coreldraw/odm/2003">
 <defs>
  <style type="text/css">
   <![CDATA[
    .fil0 {fill:#E1B783}
   ]]>
  </style>
 </defs>
 <g id="Capa_x0020_1">
  <metadata id="CorelCorpID_0Corel-Layer"/>
  <path class="fil0" d="M0.74 2.03c0.03,0.06 0.05,0.11 0.09,0.16 0.1,0.15 0.2,0.21 0.28,0.43 0.02,0.04 0.05,0.14 0.05,0.19l0.37 0 0 -1.03c0,-0.07 0.16,-0.38 0.2,-0.44l0.16 -0.33c0.04,-0.08 0.16,-0.08 0.2,-0.01l0.33 0.66c0.01,0.03 0.04,0.09 0.04,0.12l0 1.03 0.37 0c0,-0.17 0.13,-0.36 0.22,-0.48 0.04,-0.05 0.07,-0.09 0.11,-0.14 0.65,-0.98 -0.04,-2.19 -1.26,-2.19 -1.01,0.07 -1.61,1.14 -1.16,2.03zm1.06 -0.33c0.1,0.06 0.29,0.06 0.39,0l-0.21 -0.38 -0.18 0.38zm1.72 -0.19c0,0.08 0.04,0.13 0.1,0.13l0.26 0c0.14,0 0.14,-0.23 0,-0.23l-0.26 0c-0.05,0 -0.1,0.05 -0.1,0.1zm-3.52 0c0,0.08 0.04,0.13 0.1,0.13l0.27 0c0.13,0 0.13,-0.23 0,-0.23l-0.27 0c-0.05,0 -0.1,0.05 -0.1,0.1zm3.54 0.63c0,0.07 0.08,0.13 0.12,0.17 0.03,0.03 0.1,0.12 0.16,0.12 0.07,0 0.13,-0.06 0.13,-0.12 0,-0.07 -0.08,-0.12 -0.12,-0.16 -0.04,-0.04 -0.1,-0.13 -0.16,-0.13 -0.07,0 -0.13,0.06 -0.13,0.12zm-3.5 -1.4c0,0.07 0.07,0.12 0.11,0.16 0.04,0.04 0.1,0.13 0.17,0.13 0.07,0 0.12,-0.06 0.12,-0.12 0,-0.07 -0.07,-0.12 -0.11,-0.16 -0.04,-0.04 -0.1,-0.13 -0.17,-0.13 -0.06,0 -0.12,0.06 -0.12,0.12zm3.5 0.16c0,0.07 0.05,0.13 0.12,0.13 0.07,0 0.12,-0.08 0.16,-0.12 0.04,-0.03 0.13,-0.1 0.13,-0.16 0,-0.07 -0.06,-0.13 -0.12,-0.13 -0.08,0 -0.12,0.08 -0.17,0.12 -0.03,0.04 -0.12,0.1 -0.12,0.16zm-3.5 1.4c0,0.07 0.05,0.13 0.12,0.13 0.07,0 0.12,-0.07 0.16,-0.12 0.04,-0.03 0.12,-0.1 0.12,-0.16 0,-0.07 -0.05,-0.13 -0.11,-0.13 -0.08,0 -0.13,0.08 -0.17,0.12 -0.04,0.04 -0.12,0.1 -0.12,0.16zm1.7 1.68l0.51 0c0.14,0 0.28,-0.13 0.3,-0.24l-1.12 0c0.03,0.11 0.17,0.24 0.31,0.24zm0.02 -1.17l0.47 0 0 -0.86c-0.06,0 -0.17,0.05 -0.37,0.02 -0.04,-0.01 -0.07,-0.02 -0.1,-0.02l0 0.86zm-0.58 0.37c0,0.17 0.16,0.33 0.32,0.33l0.98 0c0.17,0 0.33,-0.16 0.33,-0.33l0 -0.14 -1.63 0 0 0.14z"/>
 </g>
</svg>
