<?xml version="1.0" encoding="UTF-8"?>
<!DOCTYPE svg PUBLIC "-//W3C//DTD SVG 1.1//EN" "http://www.w3.org/Graphics/SVG/1.1/DTD/svg11.dtd">
<!-- Creator: CorelDRAW 2020 (64-Bit) -->
<svg xmlns="http://www.w3.org/2000/svg" xml:space="preserve" width="70px" height="70px" version="1.1" style="shape-rendering:geometricPrecision; text-rendering:geometricPrecision; image-rendering:optimizeQuality; fill-rule:evenodd; clip-rule:evenodd"
viewBox="0 0 12.66 12.66"
 xmlns:xlink="http://www.w3.org/1999/xlink"
 xmlns:xodm="http://www.corel.com/coreldraw/odm/2003">
 <defs>
  <style type="text/css">
   <![CDATA[
    .fil0 {fill:#E1B783}
   ]]>
  </style>
 </defs>
 <g id="Capa_x0020_1">
  <metadata id="CorelCorpID_0Corel-Layer"/>
  <path class="fil0" d="M0.68 9.78c-0.57,0.58 -0.88,0.73 -0.53,1.09 0.24,0.24 0.75,-0.39 0.96,-0.61 0.16,-0.16 0.22,-0.33 0.08,-0.51 -0.11,-0.14 -0.32,-0.16 -0.51,0.03zm2.99 -1.25c0.21,0.21 0.35,0.33 0.43,0.42l0.65 0.62c0.25,0.38 0.61,0.01 1.06,-0.15l0.58 -0.27 0.86 -0.47c0.99,-0.59 1.94,-1.27 2.75,-2.09 0.71,-0.71 1.28,-1.56 1.69,-2.39 0.23,-0.45 0.49,-1.14 0.62,-1.6l0.18 -0.82c0.04,-0.24 0.26,-1.49 0.13,-1.63l-0.1 -0.1c-0.19,-0.19 -1.97,0.19 -2.37,0.29 -0.81,0.2 -1.68,0.61 -2.4,1.05 -0.51,0.31 -1.11,0.76 -1.61,1.26 -1.31,1.42 -2.17,2.68 -2.95,4.48 -0.05,0.1 -0.09,0.19 -0.12,0.28 -0.1,0.22 -0.13,0.33 0.05,0.55l0.55 0.57zm5.02 -6.05c0.83,0 1.5,0.68 1.5,1.52 0,0.83 -0.67,1.51 -1.5,1.51 -0.83,0 -1.5,-0.68 -1.5,-1.51 0,-0.84 0.67,-1.52 1.5,-1.52zm0 0.56c0.53,0 0.95,0.43 0.95,0.96 0,0.53 -0.42,0.96 -0.95,0.96 -0.53,0 -0.95,-0.43 -0.95,-0.96 0,-0.53 0.42,-0.96 0.95,-0.96zm-6.19 5.47c-0.25,0.16 -1.44,0.27 -0.86,0.86l1.61 1.64c0.6,0.61 0.69,-0.66 0.88,-0.89l-1.63 -1.61zm-0.11 -1.82c-0.56,-0.11 -1.19,-0.22 -1.28,-0.31 -0.16,-0.16 -0.1,-0.32 -0.03,-0.48 0.08,-0.17 0.15,-0.33 0.22,-0.51 0.3,-0.7 0.33,-1.03 0.72,-1.08l1.87 -0.3 -1.5 2.68zm3.61 3.68c0.1,0.54 0.2,1.13 0.29,1.22 0.16,0.16 0.31,0.1 0.47,0.03 0.17,-0.08 0.33,-0.14 0.51,-0.22 0.7,-0.3 1.02,-0.32 1.08,-0.72l0.3 -1.87 -2.65 1.56zm-4.87 0.68c-0.17,0.18 -0.65,0.6 -0.7,0.79 -0.06,0.23 0.25,0.58 0.6,0.23l0.55 -0.56c0.32,-0.31 -0.13,-0.77 -0.45,-0.46zm1.23 0.49c-0.21,0.21 -0.84,0.73 -0.6,0.97 0.35,0.36 0.51,0.04 1.08,-0.54 0.17,-0.17 0.18,-0.37 0.05,-0.49 -0.16,-0.16 -0.35,-0.11 -0.53,0.06z"/>
 </g>
</svg>
