<?xml version="1.0" encoding="UTF-8"?>
<!DOCTYPE svg PUBLIC "-//W3C//DTD SVG 1.1//EN" "http://www.w3.org/Graphics/SVG/1.1/DTD/svg11.dtd">
<!-- Creator: CorelDRAW 2020 (64-Bit) -->
<svg xmlns="http://www.w3.org/2000/svg" xml:space="preserve" width="70px" height="70px" version="1.1" style="shape-rendering:geometricPrecision; text-rendering:geometricPrecision; image-rendering:optimizeQuality; fill-rule:evenodd; clip-rule:evenodd"
viewBox="0 0 2.49 2.49"
 xmlns:xlink="http://www.w3.org/1999/xlink"
 xmlns:xodm="http://www.corel.com/coreldraw/odm/2003">
 <defs>
  <style type="text/css">
   <![CDATA[
    .fil0 {fill:#E1B783}
   ]]>
  </style>
 </defs>
 <g id="Capa_x0020_1">
  <metadata id="CorelCorpID_0Corel-Layer"/>
  <path class="fil0" d="M1.34 0.35c0.04,0.06 0.08,0.05 0.14,0.16 0.03,0.07 0.03,0.18 0,0.25 -0.08,0.16 -0.19,0.17 -0.2,0.18 -0.02,0.01 -0.01,0.07 -0.09,0.14 -0.1,0.11 -0.13,0.05 -0.15,0.11 0,0.02 0,0.02 -0.01,0.03 -0.03,0.07 -0.08,0.12 -0.15,0.16 -0.08,0.03 -0.03,-0.01 -0.07,0.07 -0.02,0.04 -0.03,0.06 -0.06,0.09 -0.1,0.11 -0.25,0.12 -0.38,0.04 -0.04,-0.03 -0.08,-0.09 -0.12,-0.11 -0.03,0.02 -0.1,0.1 -0.13,0.13 -0.02,0.02 -0.12,0.12 -0.12,0.14l0 0.03c0,0.04 0.01,0.04 0.08,0.11l0.51 0.53c0.09,0.09 0.1,0.11 0.21,0l0.38 -0.39c0.01,-0.02 0.01,-0.02 0.03,-0.02 0.13,0 0.24,0.02 0.38,-0.09 0.05,-0.04 0.08,-0.08 0.13,-0.13 0.06,-0.06 0.11,-0.11 0.17,-0.17 0.06,-0.06 0.11,-0.12 0.17,-0.18 0.08,-0.08 0.13,-0.11 0.13,-0.24 0,-0.08 -0.06,-0.17 -0.13,-0.19 0.03,-0.06 0.02,-0.15 -0.02,-0.21 -0.03,-0.04 -0.05,-0.05 -0.09,-0.07 0.03,-0.07 0.01,-0.16 -0.03,-0.21 -0.03,-0.04 -0.05,-0.05 -0.09,-0.07 0.06,-0.13 -0.05,-0.3 -0.18,-0.3 -0.09,0 -0.12,0.01 -0.19,0.08 -0.03,0.03 -0.1,0.1 -0.12,0.13zm-0.24 -0.25l0.14 0.14 0.17 -0.17c-0.07,-0.11 -0.12,-0.06 -0.21,-0.02 -0.03,0.02 -0.06,0.03 -0.1,0.05zm0.33 2.04c0,0.02 0.15,0.16 0.16,0.18 0.04,0.03 0.15,0.16 0.19,0.16 0.05,0 0.07,-0.03 0.11,-0.07 0.05,-0.05 0.23,-0.23 0.26,-0.27 0.01,-0.01 0.01,-0.01 0.02,-0.02l0.16 -0.16c0.03,-0.03 0.16,-0.15 0.16,-0.19 0,-0.05 -0.02,-0.06 -0.06,-0.09 -0.02,-0.03 -0.18,-0.21 -0.21,-0.21 0,0.02 -0.15,0.17 -0.17,0.19 -0.02,0.01 -0.03,0.03 -0.05,0.04l-0.09 0.1c-0.02,0.01 -0.03,0.03 -0.05,0.05 -0.09,0.1 -0.17,0.19 -0.29,0.24 -0.04,0.02 -0.1,0.05 -0.14,0.05zm-0.65 -1.7c-0.03,-0.01 -0.07,-0.03 -0.13,-0.01 -0.09,0.04 -0.12,0.14 -0.09,0.22 0.02,0.04 0.06,0.06 0.08,0.1 -0.02,-0.01 -0.15,-0.07 -0.22,0.08 -0.06,0.12 0.06,0.19 0.08,0.23 -0.03,-0.01 -0.08,-0.04 -0.14,-0.01 -0.04,0.02 -0.07,0.05 -0.09,0.09 -0.04,0.12 0.05,0.19 0.1,0.24 0.03,0.03 0.06,0.06 0.09,0.08 0.03,0.03 0.09,0.03 0.14,0.01 0.06,-0.03 0.11,-0.1 0.09,-0.17 0,-0.03 -0.01,-0.04 -0.02,-0.07 0.04,0.01 0.05,0.03 0.11,0.03 0.07,-0.02 0.12,-0.06 0.13,-0.13 0.01,-0.07 -0.01,-0.08 -0.01,-0.12 0.01,0 0.02,0.01 0.04,0.01 0.11,0.03 0.22,-0.07 0.19,-0.19 0,-0.02 -0.01,-0.03 -0.02,-0.05 0.03,0 0.09,0.05 0.18,-0.01 0.04,-0.03 0.08,-0.09 0.06,-0.17 -0.01,-0.06 -0.05,-0.09 -0.09,-0.13l-0.23 -0.24c-0.04,-0.04 -0.09,-0.09 -0.16,-0.07 -0.11,0.01 -0.18,0.13 -0.11,0.25 0.01,0.01 0.01,0.02 0.02,0.03z"/>
 </g>
</svg>
