<?xml version="1.0" encoding="UTF-8"?>
<!DOCTYPE svg PUBLIC "-//W3C//DTD SVG 1.1//EN" "http://www.w3.org/Graphics/SVG/1.1/DTD/svg11.dtd">
<!-- Creator: CorelDRAW 2020 (64-Bit) -->
<svg xmlns="http://www.w3.org/2000/svg" xml:space="preserve" width="70px" height="70px" version="1.1" style="shape-rendering:geometricPrecision; text-rendering:geometricPrecision; image-rendering:optimizeQuality; fill-rule:evenodd; clip-rule:evenodd"
viewBox="0 0 6.72 6.72"
 xmlns:xlink="http://www.w3.org/1999/xlink"
 xmlns:xodm="http://www.corel.com/coreldraw/odm/2003">
 <defs>
  <style type="text/css">
   <![CDATA[
    .fil0 {fill:#E1B783}
    .fil1 {fill:#ECF0F3}
   ]]>
  </style>
 </defs>
 <g id="Capa_x0020_1">
  <metadata id="CorelCorpID_0Corel-Layer"/>
  <g id="_2252485350864">
   <path class="fil0" d="M2.66 0.39c0.05,0.04 0.59,0.64 0.64,0.7 0.11,0.12 0.2,0.23 0.31,0.35l0.32 0.36 -1.27 0 0 -1.41zm-0.13 -0.39l4.03 0c0.08,0 0.16,0.07 0.16,0.14l0 3.23c0,0.09 -0.22,0.13 -0.22,-0.01l0 -3.16 -3.71 0c0.12,0.16 0.76,0.84 0.94,1.05l0.38 0.42c0.04,0.06 0.17,0.16 0.17,0.23l0 2.81 2.22 0 0 -0.98c0,-0.11 0.22,-0.11 0.22,0l0 1.02c0,0.11 -0.09,0.17 -0.17,0.17l-2.27 0 0 1.66c0,0.07 -0.08,0.14 -0.16,0.14l-3.06 0c-0.11,0 -0.11,-0.2 0,-0.2l3 0 0 -4.51 -3.84 0 0 4.51 0.43 0c0.14,0 0.14,0.2 0,0.2l-0.49 0c-0.08,0 -0.16,-0.07 -0.16,-0.14l0 -4.61c0,-0.11 0.1,-0.17 0.17,-0.17l2.27 0 0 -1.72c0,-0.03 0.06,-0.08 0.09,-0.08z"/>
   <path class="fil1" d="M0.74 2.78l0 1.3c0,0.21 0.11,0.29 0.34,0.29l2.11 0c0.2,0 0.35,-0.05 0.35,-0.26l0 -1.35c0,-0.14 -0.09,-0.25 -0.24,-0.25l-1.31 0c-0.15,0 -0.15,0.19 0,0.19l1.31 0 0 1.46 -2.33 0 0 -1.46 0.59 0c0.16,0 0.12,-0.19 0.03,-0.19 -0.16,0 -0.64,-0.02 -0.72,0.02 -0.1,0.06 -0.13,0.14 -0.13,0.25z"/>
   <path class="fil1" d="M4.98 0.7c0,-0.03 0.01,-0.04 0.04,-0.04l0.83 0 0 0.78 -0.87 0 0 -0.74zm-0.22 -0.06l0 0.83c0,0.1 0.12,0.18 0.23,0.18l0.87 0c0.09,0 0.22,-0.08 0.22,-0.21l0 -0.77c0,-0.1 -0.09,-0.21 -0.2,-0.21l-0.92 0c-0.09,0 -0.2,0.1 -0.2,0.18z"/>
   <path class="fil1" d="M1.05 4.9c0,0.06 0.06,0.1 0.13,0.1l1.92 0c0.17,0 0.17,-0.21 0,-0.21l-1.92 0c-0.07,0 -0.13,0.05 -0.13,0.11z"/>
   <path class="fil1" d="M1.05 5.99c0,0.06 0.04,0.1 0.11,0.1l1.95 0c0.15,0 0.2,-0.21 -0.07,-0.21l-1.8 0c-0.1,0 -0.19,0.03 -0.19,0.11z"/>
   <path class="fil1" d="M1.05 5.44c0,0.04 0.04,0.1 0.08,0.1l2.01 0c0.1,0 0.14,-0.2 -0.03,-0.2l-1.95 0c-0.06,0 -0.11,0.04 -0.11,0.1z"/>
   <path class="fil1" d="M4.67 2.23c0,0.08 0.03,0.13 0.13,0.13 0.17,0 1.14,0.03 1.23,-0.02 0.1,-0.05 0.06,-0.19 -0.06,-0.19l-1.18 0c-0.06,0 -0.12,0.04 -0.12,0.08z"/>
   <path class="fil1" d="M4.67 3.96c0,0.09 0.02,0.14 0.15,0.14l1.13 0c0.18,0 0.17,-0.21 0.02,-0.21l-1.18 0c-0.06,0 -0.12,0.03 -0.12,0.07z"/>
   <path class="fil1" d="M4.67 2.81c0,0.08 0.02,0.13 0.15,0.13l1.13 0c0.17,0 0.18,-0.21 0.02,-0.21l-1.18 0c-0.06,0 -0.12,0.04 -0.12,0.08z"/>
   <path class="fil1" d="M4.67 3.39c0,0.08 0.02,0.13 0.15,0.13l1.13 0c0.17,0 0.18,-0.21 0.02,-0.21l-1.18 0c-0.06,0 -0.12,0.03 -0.12,0.08z"/>
  </g>
 </g>
</svg>
