<?xml version="1.0" encoding="UTF-8"?>
<!DOCTYPE svg PUBLIC "-//W3C//DTD SVG 1.1//EN" "http://www.w3.org/Graphics/SVG/1.1/DTD/svg11.dtd">
<!-- Creator: CorelDRAW 2020 (64-Bit) -->
<svg xmlns="http://www.w3.org/2000/svg" xml:space="preserve" width="70px" height="70px" version="1.1" style="shape-rendering:geometricPrecision; text-rendering:geometricPrecision; image-rendering:optimizeQuality; fill-rule:evenodd; clip-rule:evenodd"
viewBox="0 0 68.63 68.55"
 xmlns:xlink="http://www.w3.org/1999/xlink"
 xmlns:xodm="http://www.corel.com/coreldraw/odm/2003">
 <defs>
  <style type="text/css">
   <![CDATA[
    .fil1 {fill:#E1B783}
    .fil0 {fill:#ECF0F3}
   ]]>
  </style>
 </defs>
 <g id="Capa_x0020_1">
  <metadata id="CorelCorpID_0Corel-Layer"/>
  <g id="_2251666626400">
   <path class="fil0" d="M13.52 1.2l0 16.07c0,2.14 2.14,1.53 2.14,0.53l0 -15.79 3.88 0 0 15.66c0,1.39 2.01,1.16 2.01,0.27l0 -17.14c0,-0.31 -0.46,-0.78 -0.78,-0.8l-6.21 0c-0.67,0.02 -1.04,0.57 -1.04,1.2z"/>
   <path class="fil0" d="M22.62 7.76l0 9.78c0,1.55 2.14,1.55 2.14,0l0 -8.84 3.89 0 0 9.24c0,0.89 2,1.12 2,-0.27l0 -10.04c0,-0.81 -0.67,-1.07 -1.47,-1.07l-5.08 0c-0.84,0 -1.48,0.38 -1.48,1.2z"/>
   <path class="fil0" d="M21.28 34.67c0,1.09 2.41,2.29 2.41,-2.14 0.75,0.54 0.43,3.21 1.88,3.21 1.21,0 1.32,-1.13 1.66,-2.35l0.35 -1c0,0.79 0.31,2.8 0.99,3.17 0.45,0.24 1.03,0.09 1.32,-0.33 0.32,-0.47 0.11,-1.11 0,-1.67 -0.17,-0.82 -0.84,-5.5 -1.41,-5.96 -1.87,-1.51 -2.5,2.4 -2.78,3.59l-0.72 -2.22c-0.74,-2.64 -2.36,-1.64 -2.6,-0.57l-1.1 6.27z"/>
   <path class="fil1" d="M5.62 39.22c0,0.57 0.54,0.94 0.81,0.94l23.96 0c0.94,0 1.23,-2.01 -0.27,-2.01l-23.43 0c-0.64,0 -1.07,0.42 -1.07,1.07z"/>
   <path class="fil0" d="M4.55 11.38l0 6.56c0,0.97 2.01,1.18 2.01,-0.27l0 -5.22 3.88 0 0 5.22c0,1.15 2.14,1.8 2.14,-0.67l0 -5.09c0,-0.79 -0.25,-1.47 -1.07,-1.47l-6.15 0c-0.3,0 -0.81,0.3 -0.81,0.94z"/>
   <path class="fil0" d="M16.73 30.65c-0.52,0 -0.4,-0.34 -0.4,-1.2l1.34 0.13 0 0.81c-0.23,0.11 -0.59,0.26 -0.94,0.26zm-2.41 -2.27l0 6.29c0,0.57 0.42,1.07 0.94,1.07 1.24,0 1.07,-0.97 1.07,-2.14 0.66,0.44 1.67,2.14 2.41,2.14 0.68,0 1.89,-0.72 0.3,-2.31 -0.31,-0.31 -0.6,-0.69 -0.83,-1.04 0.45,-0.23 0.83,-0.41 1.13,-0.87 1.23,-1.91 -0.17,-4.21 -2.21,-4.21 -1.34,0 -2.81,-0.29 -2.81,1.07z"/>
   <path class="fil0" d="M5.62 31.19c0,1.58 0.08,2.15 1.3,3.38 2.39,2.39 5.93,0.54 5.93,-0.7 0,-0.65 -0.42,-1.07 -1.07,-1.07 -1.04,0 -0.54,0.8 -2.28,0.8 -2.06,0 -3.12,-4.15 0.67,-4.15 0.64,0 0.79,0.42 1.37,0.46 1.4,0.09 1.96,-2.6 -2.04,-2.6 -0.52,0 -1.1,0.24 -1.47,0.4 -0.63,0.27 -0.71,0.37 -1.17,0.83 -0.66,0.67 -1.24,1.37 -1.24,2.65z"/>
   <path class="fil1" d="M5.62 43.5c0,0.65 0.43,1.08 1.07,1.08l12.59 0c1.4,0 1.75,-2.15 -0.27,-2.15l-12.18 0c-0.65,0 -1.21,0.39 -1.21,1.07z"/>
   <path class="fil0" d="M48.99 25.7l0 -2.54c0.38,0.03 0.54,-0.01 0.54,0.4l0 1.74c0,0.41 -0.16,0.36 -0.54,0.4zm-2.14 -2.27c0,1.49 -0.32,4.41 2.41,4.41 2.72,0 2.28,-3.19 2.28,-4.82 0,-2.51 -4.69,-2.88 -4.69,0.41z"/>
   <path class="fil1" d="M54.75 17.54c0,-2.12 -0.17,-2.09 0.54,-2.15 0,0.83 0.15,2.09 -0.14,2.68 -0.21,-0.14 -0.4,-0.18 -0.4,-0.53zm-2.01 -2.01c0,1.81 -0.48,4.55 2.41,4.55 2.62,0 2.28,-2.91 2.28,-4.42 0,-3.1 -4.69,-3.07 -4.69,-0.13z"/>
   <path class="fil1" d="M43.64 15.39c0,0.83 0.15,2.09 -0.13,2.68 -0.62,-0.32 -0.27,0.07 -0.39,-0.41 -0.03,-0.11 -0.02,-0.77 -0.02,-0.93 0,-0.89 -0.24,-1.27 0.54,-1.34zm-2.54 -0.13c0,2.04 -0.53,4.82 2.41,4.82 2.45,0 2.27,-2.68 2.27,-4.15 0,-3.71 -4.68,-2.96 -4.68,-0.67z"/>
   <path class="fil1" d="M54.75 33.06c0,-1.68 -0.19,-1.93 0.27,-2.27 0.46,0.32 0.27,0.57 0.27,2.27 0,0.38 -0.06,0.25 -0.27,0.41 -0.23,-0.16 -0.27,-0.02 -0.27,-0.41zm-2.01 -2.27c0,2.55 -0.46,4.68 2.68,4.68 1.04,0 2.01,-1.05 2.01,-2.54 0,-1.23 0.15,-2.51 -0.53,-3.35 -1.29,-1.58 -4.16,-0.68 -4.16,1.21z"/>
   <path class="fil1" d="M43.1 33.06c0,-1.68 -0.19,-1.93 0.27,-2.27 0.46,0.32 0.27,0.57 0.27,2.27 0,0.38 -0.06,0.25 -0.27,0.41 -0.22,-0.16 -0.27,-0.02 -0.27,-0.41zm-2 -2.14c0,2.58 -0.44,4.55 2.67,4.55 1.05,0 2.01,-1.3 2.01,-2.41 0,-2.09 0.15,-4.28 -2.54,-4.28 -1.21,0 -2.14,0.93 -2.14,2.14z"/>
   <path class="fil0" d="M48.19 29.85l0 4.55c0,1.21 2.14,1.89 2.14,-0.67 0,-1.82 0.37,-4.46 -0.78,-4.85 -0.61,-0.21 -1.36,0.18 -1.36,0.97z"/>
   <path class="fil1" d="M42.3 22.49l0 3.75c0,2.11 2.14,1.74 2.14,0.4l0 -4.42c0,-1.39 -2.14,-1.63 -2.14,0.27z"/>
   <path class="fil0" d="M48.19 14.46l0 4.41c0,1.29 2.14,1.85 2.14,-0.53 0,-1.8 0.44,-4.95 -1.07,-4.95 -0.65,0 -1.07,0.42 -1.07,1.07z"/>
   <path class="fil1" d="M54.08 22.09l0 4.82c0,0.98 2.01,1.23 2.01,-0.27l0 -4.69c0,-0.92 -2.01,-1.29 -2.01,0.14z"/>
   <path class="fil1" d="M23.43 58.77l7.49 0c0.31,1.29 0.61,2.64 0.91,3.91 0.17,0.69 0.32,1.2 0.48,1.92 0.14,0.62 0.27,1.48 0.49,1.93l-11.25 0 1.88 -7.76zm24.28 0l-14.64 0 1.87 7.76c0.7,0 3.36,-0.08 3.83,0.05 1.01,0.28 0.93,1.96 -0.35,1.96l-22.49 0c-0.65,0 -1.07,-0.43 -1.07,-1.07 0,-1.89 4.08,-0.34 4.62,-1.14l1.8 -7.56c-0.71,0 -8.26,0.13 -8.72,-0.11 -0.74,-0.38 -0.91,-2.04 0.83,-2.04l34.45 0 -0.13 2.15zm5.66 -8.44l-51.36 0c0,1.81 -0.29,4.32 0.84,5.45 0.73,0.72 1.33,0.85 2.37,0.85 0.99,-0.01 2.32,-0.18 2.86,0.35 0.6,0.61 0.26,1.79 -0.72,1.79l-2.27 0c-2.77,0 -5.09,-2.27 -5.09,-4.69l0 -26.91c0,-2.94 2.73,-5.48 6.16,-5.48l29.05 0 0 -7.5c0,-1.61 0.31,-2.86 1.04,-3.77 0.59,-0.74 1.85,-1.72 3.11,-1.72l19.54 0c2.23,0 4.28,2.16 4.28,4.42l0 8.83c0,1.18 -1.99,1.75 -2.14,-0.4 -0.11,-1.66 0.16,-8.27 -0.05,-9.05 -0.32,-1.2 -1.48,-1.79 -2.76,-1.79l-18.07 0c-1.57,0 -2.81,1.02 -2.81,2.54l0 21.96c0,2.59 2.69,2.54 4.28,2.54 3.85,0 3.48,-0.59 3.48,3.21 0.41,-0.11 0.91,-0.58 1.28,-0.86l2.45 -1.84c0.55,-0.41 0.66,-0.52 1.62,-0.52 2.02,0.02 6.67,0.24 8.37,-0.06 1.11,-0.2 2.12,-0.96 2.21,-2.07 0.17,-1.95 -0.22,-7.05 0.07,-8.37 0.32,-1.47 2.07,-1.09 2.07,0.07l0 8.03c0,2.29 -2.13,4.42 -4.41,4.42l-4.42 0 0 9.45 -0.98 1.12zm-51.36 -22.35c0,-2.33 1.57,-4.15 3.48,-4.15l29.72 0 0 10.44c0,3.12 1.72,5.49 4.41,5.49l3.48 0c0,2.24 -0.36,3.9 0.67,4.3 0.74,0.29 1.9,-0.82 2.97,-1.6 0.64,-0.47 1.2,-0.91 1.83,-1.38 2.13,-1.6 1.28,-1.32 3.77,-1.32l0 8.43 -50.33 0 0 -20.21z"/>
   <path class="fil0" d="M50.8 65.92c-7.97,-6.92 -1.08,-20.62 9.02,-18.48 2.91,0.62 5.95,2.47 7.6,5.75 5.31,10.55 -8.08,20.15 -16.62,12.73zm6.63 -12.11c1.59,0 2.25,0.01 3.53,1.28 2.36,2.34 0.83,7.02 -3.13,7.02 -2.07,0 -3.88,-1.67 -4.1,-3.93 -0.2,-2.07 1.72,-4.37 3.7,-4.37zm6.42 2.28c0.62,-0.33 1.42,-0.9 2.14,-1.07 0.48,2.04 0.94,3.2 -0.01,5.74 -1.74,4.61 -6.39,6.87 -11.25,5.12 -0.77,-0.28 -1.59,-0.8 -2.2,-1.28 -0.5,-0.39 -1.5,-1.35 -1.66,-1.95l1.98 -0.99c0.47,0.34 1.96,2.46 4.44,2.46 1.97,0 3.41,-0.25 4.99,-1.7 1.71,-1.58 2.34,-4.74 1.57,-6.33zm-12.18 1.47c0,1.41 -0.04,0.94 0.27,2.28 -0.85,0.19 -1.41,0.87 -2.14,0.93 -0.56,-2.37 -0.72,-4.17 0.4,-6.56 0.42,-0.89 0.97,-1.56 1.58,-2.29 0.97,-1.17 3.44,-2.39 5.11,-2.52l0 2.4c-2.42,0 -5.22,3.03 -5.22,5.76zm7.23 -8.16c1.71,0.14 3.8,1.19 4.99,2.37 0.42,0.42 0.98,0.9 1.03,1.51l-2 0.93c-1.37,-2.03 -3.06,-2.08 -4.02,-2.54l0 -2.27z"/>
  </g>
 </g>
</svg>
